<svg width="37" height="37" viewBox="0 0 37 37" fill="none" xmlns="http://www.w3.org/2000/svg">
<g id="Twitter">
<path id="Oval 10 Copy" opacity="0.1" fill-rule="evenodd" clip-rule="evenodd" d="M18.5 36C28.165 36 36 28.165 36 18.5C36 8.83502 28.165 1 18.5 1C8.83502 1 1 8.83502 1 18.5C1 28.165 8.83502 36 18.5 36Z" stroke="#0C111A" stroke-width="1.5"/>
<path id="instagram icon" d="M23.9727 15.5182C23.9818 15.8455 23.9886 16.1364 23.9932 16.3909C23.9977 16.6455 24 17.1818 24 18C24 18.8182 23.9977 19.3545 23.9932 19.6091C23.9886 19.8636 23.9818 20.15 23.9727 20.4682C23.9545 20.7955 23.9205 21.0727 23.8705 21.3C23.8205 21.5273 23.7591 21.7364 23.6864 21.9273C23.6136 22.1273 23.5227 22.3136 23.4136 22.4864C23.3045 22.6591 23.1636 22.8273 22.9909 22.9909C22.8273 23.1636 22.6591 23.3045 22.4864 23.4136C22.3136 23.5227 22.1273 23.6136 21.9273 23.6864C21.7364 23.7591 21.5273 23.8205 21.3 23.8705C21.0727 23.9205 20.8 23.9545 20.4818 23.9727C20.1545 23.9818 19.8636 23.9886 19.6091 23.9932C19.3545 23.9977 18.8182 24 18 24C17.1818 24 16.6455 23.9977 16.3909 23.9932C16.1364 23.9886 15.85 23.9818 15.5318 23.9727C15.2045 23.9545 14.9273 23.9205 14.7 23.8705C14.4727 23.8205 14.2636 23.7591 14.0727 23.6864C13.8727 23.6136 13.6864 23.5227 13.5136 23.4136C13.3409 23.3045 13.1727 23.1636 13.0091 22.9909C12.8364 22.8273 12.6955 22.6591 12.5864 22.4864C12.4773 22.3136 12.3864 22.1273 12.3136 21.9273C12.2409 21.7364 12.1795 21.5273 12.1295 21.3C12.0795 21.0727 12.0455 20.8 12.0273 20.4818C12.0182 20.1545 12.0114 19.8636 12.0068 19.6091C12.0023 19.3545 12 18.8182 12 18C12 17.1818 12.0023 16.6455 12.0068 16.3909C12.0114 16.1364 12.0182 15.85 12.0273 15.5318C12.0455 15.2045 12.0795 14.9273 12.1295 14.7C12.1795 14.4727 12.2409 14.2636 12.3136 14.0727C12.3864 13.8727 12.4773 13.6864 12.5864 13.5136C12.6955 13.3409 12.8364 13.1727 13.0091 13.0091C13.1727 12.8364 13.3409 12.6955 13.5136 12.5864C13.6864 12.4773 13.8727 12.3864 14.0727 12.3136C14.2636 12.2409 14.4727 12.1795 14.7 12.1295C14.9273 12.0795 15.2 12.0455 15.5182 12.0273C15.8455 12.0182 16.1364 12.0114 16.3909 12.0068C16.6455 12.0023 17.1818 12 18 12C18.8182 12 19.3545 12.0023 19.6091 12.0068C19.8636 12.0114 20.15 12.0182 20.4682 12.0273C20.7955 12.0455 21.0727 12.0795 21.3 12.1295C21.5273 12.1795 21.7364 12.2409 21.9273 12.3136C22.1273 12.3864 22.3136 12.4773 22.4864 12.5864C22.6591 12.6955 22.8273 12.8364 22.9909 13.0091C23.1636 13.1727 23.3045 13.3409 23.4136 13.5136C23.5227 13.6864 23.6136 13.8727 23.6864 14.0727C23.7591 14.2636 23.8205 14.4727 23.8705 14.7C23.9205 14.9273 23.9545 15.2 23.9727 15.5182ZM22.8818 20.4273C22.9 20.1091 22.9114 19.825 22.9159 19.575C22.9205 19.325 22.9227 18.8 22.9227 18C22.9227 17.2 22.9205 16.675 22.9159 16.425C22.9114 16.175 22.9 15.8909 22.8818 15.5727C22.8727 15.2818 22.8477 15.05 22.8068 14.8773C22.7659 14.7045 22.7227 14.5636 22.6773 14.4545C22.6227 14.3182 22.5614 14.1955 22.4932 14.0864C22.425 13.9773 22.3364 13.8727 22.2273 13.7727C22.1273 13.6636 22.0227 13.575 21.9136 13.5068C21.8045 13.4386 21.6818 13.3773 21.5455 13.3227C21.4364 13.2773 21.2955 13.2341 21.1227 13.1932C20.95 13.1523 20.7182 13.1273 20.4273 13.1182C20.1091 13.1 19.825 13.0886 19.575 13.0841C19.325 13.0795 18.8 13.0773 18 13.0773C17.2 13.0773 16.675 13.0795 16.425 13.0841C16.175 13.0886 15.8909 13.1 15.5727 13.1182C15.2818 13.1273 15.05 13.1523 14.8773 13.1932C14.7045 13.2341 14.5636 13.2773 14.4545 13.3227C14.3182 13.3773 14.1955 13.4386 14.0864 13.5068C13.9773 13.575 13.8727 13.6636 13.7727 13.7727C13.6636 13.8727 13.575 13.9773 13.5068 14.0864C13.4386 14.1955 13.3773 14.3182 13.3227 14.4545C13.2773 14.5636 13.2341 14.7045 13.1932 14.8773C13.1523 15.05 13.1273 15.2818 13.1182 15.5727C13.1 15.8909 13.0886 16.175 13.0841 16.425C13.0795 16.675 13.0773 17.2 13.0773 18C13.0773 18.8 13.0795 19.325 13.0841 19.575C13.0886 19.825 13.1 20.1091 13.1182 20.4273C13.1273 20.7182 13.1523 20.95 13.1932 21.1227C13.2341 21.2955 13.2773 21.4364 13.3227 21.5455C13.3773 21.6818 13.4386 21.8045 13.5068 21.9136C13.575 22.0227 13.6636 22.1273 13.7727 22.2273C13.8727 22.3364 13.9773 22.425 14.0864 22.4932C14.1955 22.5614 14.3182 22.6227 14.4545 22.6773C14.5636 22.7227 14.7045 22.7659 14.8773 22.8068C15.05 22.8477 15.2818 22.8727 15.5727 22.8818C15.8909 22.9 16.175 22.9114 16.425 22.9159C16.675 22.9205 17.2 22.9227 18 22.9227C18.8 22.9227 19.325 22.9205 19.575 22.9159C19.825 22.9114 20.1091 22.9 20.4273 22.8818C20.7182 22.8727 20.95 22.8477 21.1227 22.8068C21.2955 22.7659 21.4364 22.7227 21.5455 22.6773C21.6818 22.6227 21.8045 22.5614 21.9136 22.4932C22.0227 22.425 22.1273 22.3364 22.2273 22.2273C22.3364 22.1273 22.425 22.0227 22.4932 21.9136C22.5614 21.8045 22.6227 21.6818 22.6773 21.5455C22.7227 21.4364 22.7659 21.2955 22.8068 21.1227C22.8477 20.95 22.8727 20.7182 22.8818 20.4273ZM18 14.9182C18.4273 14.9182 18.8273 15 19.2 15.1636C19.5727 15.3182 19.9 15.5364 20.1818 15.8182C20.4636 16.1 20.6818 16.4273 20.8364 16.8C21 17.1727 21.0818 17.5727 21.0818 18C21.0818 18.4273 21 18.8273 20.8364 19.2C20.6818 19.5727 20.4636 19.9 20.1818 20.1818C19.9 20.4636 19.5727 20.6818 19.2 20.8364C18.8273 21 18.4273 21.0818 18 21.0818C17.5727 21.0818 17.1727 21 16.8 20.8364C16.4273 20.6818 16.1 20.4636 15.8182 20.1818C15.5364 19.9 15.3182 19.5727 15.1636 19.2C15 18.8273 14.9182 18.4273 14.9182 18C14.9182 17.5727 15 17.1727 15.1636 16.8C15.3182 16.4273 15.5364 16.1 15.8182 15.8182C16.1 15.5364 16.4273 15.3182 16.8 15.1636C17.1727 15 17.5727 14.9182 18 14.9182ZM18 20.0045C18.5545 20.0045 19.0273 19.8091 19.4182 19.4182C19.8091 19.0273 20.0045 18.5545 20.0045 18C20.0045 17.4455 19.8091 16.9727 19.4182 16.5818C19.0273 16.1909 18.5545 15.9955 18 15.9955C17.4455 15.9955 16.9727 16.1909 16.5818 16.5818C16.1909 16.9727 15.9955 17.4455 15.9955 18C15.9955 18.5545 16.1909 19.0273 16.5818 19.4182C16.9727 19.8091 17.4455 20.0045 18 20.0045ZM21.9 14.6318C21.9455 14.8227 21.9159 15.0023 21.8114 15.1705C21.7068 15.3386 21.5591 15.4455 21.3682 15.4909C21.1773 15.5364 20.9977 15.5068 20.8295 15.4023C20.6614 15.2977 20.5545 15.15 20.5091 14.9591C20.4636 14.7682 20.4932 14.5886 20.5977 14.4205C20.7023 14.2523 20.85 14.1455 21.0409 14.1C21.2318 14.0455 21.4114 14.0727 21.5795 14.1818C21.7477 14.2909 21.8545 14.4409 21.9 14.6318Z" fill="#0C111A"/>
</g>
</svg>
